<?xml version="1.0" encoding="iso-8859-1"?>
<!-- Generator: Adobe Illustrator 18.0.0, SVG Export Plug-In . SVG Version: 6.00 Build 0)  -->
<!DOCTYPE svg PUBLIC "-//W3C//DTD SVG 1.1//EN" "http://www.w3.org/Graphics/SVG/1.1/DTD/svg11.dtd">
<svg xmlns="http://www.w3.org/2000/svg" xmlns:xlink="http://www.w3.org/1999/xlink" version="1.1" id="Capa_1" x="0px" y="0px" viewBox="0 0 297 297" style="enable-background:new 0 0 297 297;" xml:space="preserve" width="512px" height="512px">
<path d="M114.126,51.684h-11.376c-3.824,0-6.924,3.1-6.924,6.924s3.1,6.924,6.924,6.924h11.376v18.794h-11.376  c-3.824,0-6.924,3.1-6.924,6.924s3.1,6.924,6.924,6.924h11.376v48.47h-21.02v-22.751c0-14.454-11.759-26.213-26.213-26.213  S40.68,109.44,40.68,123.894v9.397h-6.43c-3.824,0-6.924,3.1-6.924,6.924s3.1,6.924,6.924,6.924h6.43v18.794h-6.43  c-3.824,0-6.924,3.1-6.924,6.924c0,3.824,3.1,6.924,6.924,6.924h7.796c5.038,20.419,23.501,35.61,45.454,35.61h18.465v71.715  c0,5.463,4.429,9.892,9.892,9.892h65.286c5.463,0,9.892-4.429,9.892-9.892V182.75h17.887c22.068,0,40.66-15.159,45.914-35.61h7.914  c3.824,0,6.924-3.1,6.924-6.924s-3.1-6.924-6.924-6.924h-6.43v-18.794h6.43c3.824,0,6.924-3.1,6.924-6.924  c0-3.824-3.1-6.924-6.924-6.924h-6.43v-9.397c0-14.454-11.759-26.213-26.213-26.213s-26.213,11.759-26.213,26.213v22.751h-21.02  v-48.47h12.365c3.824,0,6.924-3.1,6.924-6.924s-3.1-6.924-6.924-6.924h-12.365c0-5.884-1.488-12.662-4.104-17.509l7.106-7.106  c2.704-2.705,2.704-7.088,0-9.793c-2.705-2.703-7.088-2.703-9.793,0l-6.249,6.249c-4.14-3.287-9.046-5.649-14.409-6.75V6.924  c0-3.824-3.1-6.924-6.924-6.924s-6.924,3.1-6.924,6.924v9.851c-5.364,1.101-10.27,3.463-14.409,6.75l-6.249-6.249  c-2.705-2.703-7.088-2.703-9.793,0c-2.704,2.705-2.704,7.088,0,9.793l7.106,7.106C115.614,39.023,114.126,45.801,114.126,51.684z   M236.537,135.353c0,15.226-12.388,27.614-27.615,27.614h-27.779c-5.463,0-9.892,4.429-9.892,9.892v104.358h-45.502v-71.715  c0-5.463-4.429-9.892-9.892-9.892H87.501c-14.908,0-27.037-12.129-27.037-27.038v-44.677c0-3.545,2.884-6.43,6.43-6.43  s6.43,2.884,6.43,6.43v32.643c0,5.463,4.429,9.892,9.892,9.892h40.803c5.463,0,9.892-4.429,9.892-9.892V50.448  c0-8.045,6.546-14.59,14.59-14.59s14.59,6.546,14.59,14.59v73.446c0,5.463,4.429,9.892,9.892,9.892h40.803  c5.463,0,9.892-4.429,9.892-9.892V91.251c0-3.545,2.884-6.43,6.43-6.43s6.43,2.884,6.43,6.43V135.353z" fill="#57d131"/>
<g>
</g>
<g>
</g>
<g>
</g>
<g>
</g>
<g>
</g>
<g>
</g>
<g>
</g>
<g>
</g>
<g>
</g>
<g>
</g>
<g>
</g>
<g>
</g>
<g>
</g>
<g>
</g>
<g>
</g>
</svg>
