<?xml version="1.0" ?><svg data-name="Layer 1" id="Layer_1" viewBox="0 0 60 60" xmlns="http://www.w3.org/2000/svg" xmlns:xlink="http://www.w3.org/1999/xlink"><defs><style>.cls-1,.cls-4{fill:none;}.cls-1{clip-rule:evenodd;}.cls-2{clip-path:url(#clip-path);}.cls-3{fill:#57d131;}.cls-4{stroke:#406661;stroke-linecap:round;stroke-linejoin:round;stroke-width:2px;}.cls-5{clip-path:url(#clip-path-2);}</style><clipPath id="clip-path"><path class="cls-1" d="M26.71,13.5S16.5,17.5,11.21,26s0.5,19.5.5,19.5Z"/></clipPath><clipPath id="clip-path-2"><path class="cls-1" d="M39,49c5.6-3.36,9.4-10.92,10.71-19.5,1.62-10.58,0-22.29,0-24.5,0-4-11,5-18,15s-17.5,28-17.5,28S26.5,56.5,39,49Z"/></clipPath></defs><title/><g class="cls-2"><rect class="cls-3" height="42" width="27.73" x="3.99" y="8.5"/></g><path class="cls-4" d="M26.71,13.5S16.5,17.5,11.21,26s0.5,19.5.5,19.5Z"/><g class="cls-5"><rect class="cls-3" height="58.06" width="46.22" x="9.21" y="-0.97"/></g><path class="cls-4" d="M39,49c5.6-3.36,9.4-10.92,10.72-19.5,1.62-10.58,0-22.29,0-24.5,0-4-11,5-18,15s-17.5,28-17.5,28S26.5,56.5,39,49Z"/></svg>